<svg xmlns="http://www.w3.org/2000/svg" xmlns:xlink="http://www.w3.org/1999/xlink" width="500" height="144" viewBox="0 0 500 144">
    <defs>
        <path id="a" d="M0 126.436h489.39V.592H0z"/>
    </defs>
    <g fill="none" fill-rule="evenodd">
        <path fill="#f7f9fa" d="M0 0h500v144H0z"/>
        <g transform="translate(5.265 8.047)">
            <path fill="#F2303A" d="M38.888 115.136c9.117-6.75 21.34-10.125 33.564-10.125 17.781 0 35.562 7.141 43.784 21.424h28.67l-8.62-14.972c-18.539-32.2-63.444-35.365-97.398 3.673m69.91-51.417L72.453.594.002 126.434h28.667c16.08-27.928 43.233-52.812 80.13-62.715"/>
            <path fill="#1C1E21" d="M193.1 47.658v43.698h-5.523v-7.514c-2.35 2.867-4.989 5.016-7.913 6.47-2.925 1.44-6.124 2.168-9.596 2.168-6.163 0-11.426-2.249-15.799-6.732-4.36-4.482-6.547-9.937-6.547-16.365 0-6.291 2.214-11.664 6.615-16.133 4.402-4.467 9.704-6.716 15.896-6.716 3.58 0 6.822.768 9.704 2.289 2.899 1.533 5.44 3.825 7.64 6.869v-8.034h5.524zm-22.43 4.304c-3.117 0-6 .768-8.653 2.302-2.638 1.55-4.742 3.7-6.3 6.497-1.559 2.785-2.338 5.731-2.338 8.828 0 3.086.78 6.032 2.351 8.839 1.585 2.811 3.691 4.99 6.358 6.568 2.651 1.56 5.507 2.342 8.54 2.342 3.075 0 5.987-.782 8.735-2.332 2.746-1.547 4.866-3.643 6.343-6.304 1.487-2.643 2.227-5.631 2.227-8.95 0-5.058-1.667-9.29-4.99-12.69-3.322-3.403-7.407-5.1-12.273-5.1zm34.212 39.391h5.605V30.799h-5.605v60.554zm11.36-43.695h5.765l13.34 31.73 13.971-31.73h1.011l13.93 31.73 13.57-31.73h5.85l-18.904 43.698h-1.077l-13.864-31.28-13.966 31.28h-1.04l-18.586-43.698zm117.45 0v43.698h-5.523v-7.514c-2.348 2.867-4.986 5.016-7.914 6.47-2.925 1.44-6.123 2.168-9.593 2.168-6.166 0-11.429-2.249-15.801-6.732-4.36-4.482-6.548-9.937-6.548-16.365 0-6.291 2.214-11.664 6.616-16.133 4.402-4.467 9.704-6.716 15.896-6.716 3.58 0 6.821.768 9.707 2.289 2.893 1.533 5.436 3.825 7.637 6.869v-8.034h5.523zm-22.43 4.304c-3.117 0-6 .768-8.654 2.302-2.637 1.55-4.744 3.7-6.3 6.497-1.558 2.785-2.337 5.731-2.337 8.828 0 3.086.779 6.032 2.35 8.839 1.586 2.811 3.692 4.99 6.359 6.568 2.648 1.56 5.507 2.342 8.543 2.342 3.074 0 5.984-.782 8.732-2.332 2.746-1.547 4.865-3.643 6.342-6.304 1.49-2.643 2.227-5.631 2.227-8.95 0-5.058-1.666-9.29-4.989-12.69-3.32-3.403-7.408-5.1-12.273-5.1zm30.357-4.304h5.931l14.983 33.663 14.527-33.663h5.973l-25.994 59.678h-5.921l8.406-19.272-17.905-40.406zm70.568 4.784l-3.606 3.74c-2.996-2.919-5.921-4.384-8.775-4.384-1.82 0-3.362.602-4.662 1.808-1.298 1.207-1.94 2.62-1.94 4.224 0 1.413.531 2.767 1.597 4.055 1.067 1.304 3.312 2.852 6.727 4.62 4.167 2.165 7 4.248 8.487 6.265 1.477 2.028 2.215 4.316 2.215 6.864 0 3.58-1.259 6.621-3.773 9.116-2.501 2.482-5.644 3.73-9.404 3.73-2.514 0-4.905-.549-7.19-1.644-2.282-1.101-4.167-2.62-5.673-4.539l3.528-4.018c2.856 3.237 5.889 4.853 9.088 4.853 2.243 0 4.157-.71 5.728-2.165 1.572-1.439 2.364-3.14 2.364-5.1 0-1.6-.518-3.04-1.556-4.29-1.055-1.234-3.39-2.794-7.055-4.658-3.92-2.043-6.587-4.047-8.009-6.032-1.405-1.975-2.119-4.235-2.119-6.785 0-3.316 1.122-6.072 3.378-8.266 2.256-2.19 5.112-3.302 8.556-3.302 4.004 0 8.035 1.972 12.094 5.908z"/>
            <path fill="#F2303A" d="M458.136 72.41h-22.999l-8.977 18.945h-9.444l28.425-60.35h3.154l28.064 60.35h-9.204l-9.02-18.944zm-3.83-8.323l-7.604-16.247-7.684 16.247h15.287z"/>
            <mask id="b" fill="#f7f9fa">
                <use xlink:href="#a"/>
            </mask>
            <path fill="#F2303A" d="M480.888 91.353h8.501V31.005h-8.5z" mask="url(#b)"/>
        </g>
    </g>
</svg>
